<svg xmlns="http://www.w3.org/2000/svg" viewBox="0 0 80 80" role="img" aria-labelledby="title desc">
  <title id="title">Pixel cat placeholder</title>
  <desc id="desc">Replace this image with your own pixel cat or cute sticker.</desc>
  <rect width="80" height="80" fill="#fff0f9"/>
  <path fill="#ff9fd6" d="M18 28h8v-8h8v8h12v-8h8v8h8v28h-8v8H26v-8h-8z"/>
  <path fill="#ffffff" d="M26 36h8v8h-8zm20 0h8v8h-8z"/>
  <path fill="#63325c" d="M30 40h4v4h-4zm20 0h4v4h-4zm-10 8h4v4h-4z"/>
  <path fill="#ff4fb3" d="M28 50h8v4h-8zm16 0h8v4h-8z"/>
  <path fill="#bcecff" d="M10 14h8v8h-8zm52 46h8v8h-8z"/>
  <path fill="#fff3a8" d="M58 10h6v6h6v6h-6v6h-6v-6h-6v-6h6z"/>
</svg>
