<svg xmlns="http://www.w3.org/2000/svg" viewBox="0 0 80 80" role="img" aria-labelledby="title desc">
  <title id="title">Teddy bear placeholder</title>
  <desc id="desc">Replace this image with your own teddy bear sticker.</desc>
  <rect width="80" height="80" fill="#fff8fd"/>
  <path fill="#d9a066" d="M18 18h14v14H18zm30 0h14v14H48z"/>
  <path fill="#e7b77c" d="M20 30h40v34H20z"/>
  <path fill="#fff3a8" d="M30 42h20v18H30z"/>
  <path fill="#63325c" d="M30 36h6v6h-6zm14 0h6v6h-6zm-6 10h4v4h-4z"/>
  <path fill="#ff9fd6" d="M16 54h10v10H16zm38 0h10v10H54z"/>
  <path fill="#bcecff" d="M8 12h6v6h6v6h-6v6H8v-6H2v-6h6z"/>
</svg>
